<svg width="196" height="40" viewBox="0 0 196 40" fill="none" xmlns="http://www.w3.org/2000/svg">
<path d="M97.7775 28.2679L97.9188 28.4055C96.9021 30.6179 94.5891 32 91.9949 32C89.8566 32 87.8534 31.1018 87.298 28.7866V15.5867H84.985V15.4142L92.205 9.78136H92.8354V13.6178H97.322L97.0433 15.5836H92.8354V26.5788C92.8354 28.3768 93.8877 29.1359 95.2896 29.1359C96.1931 29.1218 97.0667 28.817 97.7775 28.2679ZM82.9172 17.9366C82.9172 15.1028 80.7789 13.0976 77.7648 13.0976C75.6265 13.0976 73.6985 14.1682 71.7013 16.4138H71.4896C70.8591 14.4102 69.0354 13.0976 66.5811 13.0976C64.4444 13.0976 62.481 14.1682 60.5881 16.3458H60.3427L60.0972 13.0976H59.7475L53.1241 14.7913V14.9652L54.9816 16.7965V29.6501L53.4048 31.3135V31.4859H62.0974V31.3135L60.5191 29.6501V17.6251C61.5714 16.7269 62.6221 16.2778 63.6391 16.2778C65.2512 16.2778 66.1624 17.2803 66.1624 19.0072V29.5457L64.5855 31.3089V31.4813H73.3134V31.3089L71.7013 29.6455V17.6251C72.7873 16.7269 73.8395 16.2778 74.8197 16.2778C76.3981 16.2778 77.3783 17.3136 77.3783 19.0072V29.5457L75.7662 31.3089V31.4813H84.494V31.3089L82.9172 29.6455V17.9366ZM51.7573 22.393C51.7573 28.1303 47.9364 32 42.2242 32C36.6162 32 32.97 28.3375 32.97 22.7393C32.97 17.0036 36.7911 13.0991 42.5048 13.0991C48.0776 13.0991 51.7573 16.7617 51.7573 22.393ZM46.082 23.568C46.082 17.9729 44.4698 14.516 41.9403 14.516C39.8022 14.516 38.6456 16.8993 38.6456 21.5296C38.6456 27.1247 40.2577 30.5831 42.7871 30.5831C44.9224 30.5831 46.0788 28.1983 46.0788 23.568H46.082ZM165.391 22.393C165.391 28.1303 161.57 32 155.858 32C150.25 32 146.604 28.3375 146.604 22.7393C146.604 17.0036 150.424 13.0991 156.137 13.0991C161.708 13.0991 165.388 16.7617 165.388 22.393H165.391ZM159.715 23.568C159.715 17.9729 158.103 14.516 155.574 14.516C153.435 14.516 152.279 16.8993 152.279 21.5296C152.279 27.1247 153.892 30.5831 156.421 30.5831C158.552 30.5831 159.709 28.1983 159.709 23.568H159.715ZM105.909 16.7965H105.699L105.454 13.0991H105.104L98.479 14.8261V14.9652L100.337 16.7965V29.6501L98.7596 31.3135V31.4859H107.731V31.3135L105.874 29.6501V18.3162C106.223 17.4875 107.274 16.7965 108.011 16.7965C108.116 16.7942 108.223 16.8059 108.326 16.8312L111.873 19.1796H112.048V13.5845C111.731 13.3078 111.137 13.1006 110.435 13.1006C108.748 13.0991 107.424 14.1698 105.909 16.7965ZM147.197 13.6208H141.829V13.7932L144.036 16.004L140.216 26.6468L135.905 15.4853L137.591 13.7932V13.6208H128.619V13.7932L129.914 15.4853L136.4 31.4843H139.45L145.688 16.004L147.196 13.7932L147.197 13.6208ZM127.849 28.5794L129.706 29.5457V29.7196C129.347 30.4045 128.805 30.9792 128.137 31.3812C127.471 31.7833 126.704 31.9973 125.922 32C124.098 32 122.662 30.7902 122.487 29.0981H122.241C120.348 30.9974 118.281 32 116.352 32C113.828 32 112.11 30.3366 112.11 27.9912C112.11 25.366 114.284 23.4304 119.262 21.7368L122.312 20.6661V18.8001C122.312 17.2455 121.154 16.2778 119.191 16.2778C117.052 16.2778 114.915 17.4527 113.618 19.3868L113.479 19.3188C114.246 15.3795 117.123 13.0991 121.364 13.0991C125.185 13.0991 127.849 14.9304 127.849 17.5903V28.5794ZM122.312 21.9107L120.664 22.5322C118.281 23.4304 117.123 24.6749 117.123 26.2643C117.123 27.8883 118.281 29.0633 119.928 29.0633C120.382 29.0597 120.831 28.9588 121.243 28.7677C121.654 28.5766 122.019 28.2998 122.312 27.9564V21.9107ZM31.1017 14.9213H31.6493V8H24.6394V8.53229C28.0431 9.3398 30.2873 11.5506 31.1017 14.9213ZM25.9279 28.6475C21.2848 28.6475 17.9777 24.4345 17.9777 18.3313C17.9777 14.569 19.4625 9.77985 21.3983 8.67746V8.124C15.62 9.43205 12 14.0624 12 20.4544C12 27.1217 16.6094 31.9652 23.0027 31.9652C27.6812 31.9652 31.0788 29.4111 31.6508 25.4295L31.4822 25.363C30.2689 27.4861 28.3499 28.6475 25.9279 28.6475Z" fill="#1E605A"/>
</svg>
